<svg class="icon" xmlns="http://www.w3.org/2000/svg" xmlns:xlink="http://www.w3.org/1999/xlink"
              id="_x31__x2C_5" x="0px" y="0px" viewBox="0 0 512 512" style="enable-background:new 0 0 512 512;"
              xml:space="preserve">
              <g>
                <path class="st0"
                  d="M393.13,52.67C291.46,52.67,221.63,0,172.64,0S20.76,28.16,20.76,253.55S159.18,512,213.06,512   C465.4,512.01,573.19,52.67,393.13,52.67z">
                </path>
              </g>
              <g>
                <g>
                  <path class="st1" d="M378.33,116.35l20.78-20.78l10.39,10.39l-20.78,20.78L378.33,116.35z"></path>
                </g>
                <g>
                  <path class="st1" d="M383.47,163.05l10.39-10.39l20.78,20.78l-10.39,10.  39L383.47,163.05z"></path>
                </g>
                <g>
                  <path class="st1" d="M323.72,103.3l10.39-10.39l20.78,20.78l-10.39,10.39L323.72,103.3z"></path>
                </g>
              </g>
              <g>
                <circle class="st0" cx="148.79" cy="123.71" r="33.07"></circle>
              </g>
              <g>
                <path class="st0"
                  d="M211.26,237.63c0-24.36-19.74-44.1-44.1-44.1h-36.75c-24.36,0-44.1,19.74-44.1,44.1v60.74   c0,5.57,3.15,10.66,8.13,13.14l13.14,6.57c4.98,2.48,8.13,7.58,8.13,13.14v75.44c0,8.11,6.59,14.7,14.7,14.7h36.75   c8.11,0,14.7-6.59,14.7-14.7v-75.44c0-5.57,3.15-10.66,8.13-13.14l13.14-6.57c4.98-2.48,8.13-7.58,8.13-13.14V237.63z">
                </path>
              </g>
              <g>
                <circle class="st0" cx="325.17" cy="329.5" r="62.47"></circle>
              </g>
              <g>
                <path class="st1"
                  d="M148.79,123.71c0-12.21,6.69-22.75,16.54-28.49c-4.88-2.84-10.48-4.59-16.54-4.59   c-18.27,0-33.07,14.8-33.07,33.07s14.8,33.07,33.07,33.07c6.06,0,11.66-1.75,16.54-4.59C155.47,146.46,148.79,135.92,148.79,123.71   z">
                </path>
              </g>
              <g>
                <path class="st1"
                  d="M148.79,406.67v-75.44c0-5.57-3.15-10.66-8.13-13. 14l-13.14-6.57c-4.98-2.5-8.13-7.58-8.13-13.16v-60.74   c0-24.36,19.74-44.1,44.1-44.1h-33.07c-24.36,0-44.1,19.74-44.1,44.1v60.74c0,5.57,3.15,10.66,8.13,13.14l13.14,6.57   c4.98,2.48,8.13,7.58,8.13,13.14v75.44c0,8.11,6.59,14.7,14.7,14.7h33.07C155.37,421.37,148.79,414.78,148.79,406.67L148.79,406.67   z">
                </path>
              </g>
              <g>
                <path class="st1"
                  d="M295.78,329.5c0-28.74,19.52-52.7,45.93-59.97c-5.31-1.46-10.77-2.5-16.54-2.5   c-34.5,0-62.47,27.97-62.47,62.47s27.97,62.47,62.47,62.47c5.76,0,11.23-1.03,16.54-2.5C315.3,382.19,295.78,358.23,295.78,329.5z">
                </path>
              </g>
              <g>
                <path class="st2"
                  d="M148.79,167.81c-24.31,0-44.1-19.79-44.1-44.1s19.79-44.1,44.1-44.1s44.1,19.79,44.1,44.1   S173.1,167.81,148.79,167.81z M148.79,101.66c-12.16,0-22.05,9.89-22.05,22.05s9.89,22.05,22.05,22.05s22.05-9.89,22.05-22.05   S160.94,101.66,148.79,101.66z">
                </path>
              </g>
              <g>
                <path class="st2"
                  d="M167.16,432.39h-36.75c-14.18,0-25.72-11.54-25.72-25.72v-75.44c0-1.4-0.78-2.66-2.03-3.29l-13.16-6.57   c-8.76-4.38-14.21-13.2-14.21-23v-60.74c0-30.4,24.74-55.12,55.12-55.12h36.75c30.38,0,55.12,24.72,55.12,55.12v60.74   c0,9.8-5.45,18.62-14.23,23l-13.16,6.57c-1.23,0.63-2.01,1.9-2.01,3.29v75.44C192.88,420.85,181.34,432.39,167.16,432.39   L167.16,432.39z M130.41,204.55c-18.23,0-33.07,14.83-33.07,33.07v60.74c0,1.4,0.78,2.66,2.03,3.29l13.16,6.57   c8.76,4.38,14.21,13.2,14.21,23v75.44c0,2.03,1.65,3.67,3.67,3.67h36.75c2.03,0,3.67-1.65,3.67-3.67v-75.44   c0-9.8,5.45-18.62,14.23-23l13.16-6.57c1.25-0.62,2.03-1.88,2.03-3.29v-60.74c0-18.24-14.85-33.07-33.07-33.07H130.41z">
                </path>
              </g>
              <g>
                <path class="st2"
                  d="M325.17,402.99c-40.53,0-73.5-32.97-73.5-73.5s32.97-73.5,73.5-73.5s73.5,32.97,73.5,73.5   S365.7,402.99,325.17,402.99z M325.17,278.05c-28.37,0-51.45,23.08-51.45,51.45s23.08,51.45,51.45,51.45s51.45-23.08,51.45-51.45   S353.54,278.05,325.17,278.05z">
                </path>
              </g>
              <g class="st2">
                <path d="M356.28,376.31l15.59-15.59l60.68,60.68l-15.59,15.59L356.28,376.31z"></path>
              </g>
            </svg>