<svg class="icon" xmlns="http://www.w3.org/2000/svg" xmlns:xlink="http://www.w3.org/1999/xlink"
              id="_x31__x2C_5" x="0px" y="0px" viewBox="0 0 512 512" style="enable-background:new 0 0 512 512;"
              xml:space="preserve">
              <path class="st0"
                d="M404.26,52.67C302.59,52.67,232.77,0,183.78,0S31.89,28.16,31.89,253.55S170.31,512,224.2,512  C476.54,512.01,584.33,52.67,404.26,52.67z">
              </path>
              <path class="st1"
                d="M240.77,50.21c-12.16,0-22.05-9.89-22.05-22.05s9.89-22.05,22.05-22.05s22.05,9.89,22.05,22.05  S252.92,50.21,240.77,50.21z M240.77,20.81c-4.06,0-7.35,3.29-7.35,7.35s3.29,7.35,7.35,7.35s7.35-3.29,7.35-7.35  S244.82,20.81,240.77,20.81z">
              </path>
              <g>
                <path class="st2" d="M97.45,90.63h36.75v36.75H97.45V90.63z"></path>
                <path class="st2"
                  d="M402.46,289.07c-10.14,0-18.37-8.23-18.37-18.37s8.23-18.37,18.37-18.37c10.14,0,18.37,8.23,18.37,18.37   S412.6,289.07,402.46,289.07z">
                </path>
                <path class="st0"
                  d="M325.29,421.37l-12.99-97.48c-0.97-7.31-7.2-12.76-14.57-12.76h-69.81c-7.36,0-13.6,5.45-14.57,12.76   l-13.01,97.48H325.29z">
                </path>
                <path class="st2"
                  d="M123.17,289.07c-10.14,0-18.37-8.23-18.37-18.37s8.23-18.37,18.37-18.37c10.14,0,18.37,8.23,18.37,18.37   S133.31,289.07,123.17,289.07z">
                </path>
                <path class="st2" d="M391.43,90.63h36.75v36.75h-36.75V90.63z"></path>
              </g>
              <path class="st0" d="M288.64,311.12l36.64-53.65l-62.47-144.79l-62.47,144.79l36.64,53.65H288.64z"></path>
              <path class="st0" d="M97.45,90.63h33.07v36.75H97.45V90.63z"></path>
              <path class="st0"
                d="M417.15,270.7c0-2.79,0.72-5.37,1.84-7.73c-2.94-6.25-9.19-10.64-16.54-10.64c-10.14,0-18.37,8.23-18.37,18.37  s8.23,18.37,18.37,18.37c7.35,0,13.6-4.4,16.54-10.64C417.88,276.06,417.15,273.49,417.15,270.7z">
              </path>
              <path class="st1"
                d="M260.98,311.12H227.9c-7.36,0-13.6,5.45-14.57,12.76l-12.99,97.48h33.07l12.99-97.48  C247.39,316.58,253.61,311.12,260.98,311.12z">
              </path>
              <path class="st0"
                d="M137.87,270.7c0-2.79,0.72-5.37,1.84-7.73c-2.94-6.25-9.19-10.64-16.54-10.64c-10.14,0-18.37,8.23-18.37,18.37  s8.23,18.37,18.37,18.37c7.35,0,13.6-4.4,16.54-10.64C138.59,276.06,137.87,273.49,137.87,270.7z">
              </path>
              <path class="st0" d="M391.43,90.63h33.07v36.75h-33.07V90.63z"></path>
              <path class="st1" d="M279.35,151l-16.54-38.32l-62.47,144.79l36.64,53.65h33.07l-36.64-53.65L279.35,151z">
              </path>
              <path class="st2"
                d="M413.48,248.65h-22.05c0-70.92-57.69-128.62-128.62-128.62S134.2,177.73,134.2,248.65h-22.05  c0-83.08,67.59-150.67,150.67-150.67S413.48,165.57,413.48,248.65z">
              </path>
              <path class="st2"
                d="M134.2,138.41H97.45c-6.09,0-11.02-4.94-11.02-11.02V90.63c0-6.09,4.94-11.02,11.02-11.02h36.75  c6.09,0,11.02,4.94,11.02,11.02v36.75C145.22,133.47,140.28,138.41,134.2,138.41z M108.47,116.36h14.7v-14.7h-14.7V116.36z">
              </path>
              <path class="st2"
                d="M402.46,300.1c-16.21,0-29.4-13.19-29.4-29.4s13.19-29.4,29.4-29.4c16.21,0,29.4,13.19,29.4,29.4  S418.67,300.1,402.46,300.1z M402.46,263.35c-4.06,0-7.35,3.29-7.35,7.35s3.29,7.35,7.35,7.35s7.35-3.29,7.35-7.35  S406.51,263.35,402.46,263.35z">
              </path>
              <path class="st2" d="M137.87,97.98h249.89v22.05H137.87V97.98z"></path>
              <path class="st2"
                d="M297.74,317.34l-18.2-12.44l33.22-48.64l-49.95-115.76l-49.95,115.76l33.22,48.64l-18.2,12.44l-36.64-53.65  c-2.13-3.12-2.51-7.11-1.01-10.58l62.47-144.79c3.48-8.07,16.76-8.07,20.24,0l62.47,144.79c1.5,3.47,1.12,7.47-1.01,10.58  L297.74,317.34z">
              </path>
              <path class="st2"
                d="M315.8,433.76l-14.45-108.42c-0.24-1.82-1.81-3.19-3.65-3.19H227.9c-1.84,0-3.4,1.37-3.65,3.19l-14.45,108.41  l-21.86-2.91l14.45-108.42c1.72-12.71,12.67-22.31,25.5-22.31h69.81c12.83,0,23.8,9.6,25.49,22.31l14.46,108.42L315.8,433.76z">
              </path>
              <path class="st2" d="M251.79,120.03h22.05V241.3h-22.05V120.03z"></path>
              <path class="st2"
                d="M123.17,300.1c-16.21,0-29.4-13.19-29.4-29.4s13.19-29.4,29.4-29.4s29.4,13.19,29.4,29.4  S139.39,300.1,123.17,300.1z M123.17,263.35c-4.06,0-7.35,3.29-7.35,7.35s3.29,7.35,7.35,7.35c4.06,0,7.35-3.29,7.35-7.35  S127.23,263.35,123.17,263.35z">
              </path>
              <path class="st2"
                d="M428.18,138.41h-36.75c-6.09,0-11.02-4.94-11.02-11.02V90.63c0-6.09,4.94-11.02,11.02-11.02h36.75  c6.09,0,11.02,4.94,11.02,11.02v36.75C439.2,133.47,434.26,138.41,428.18,138.41z M402.46,116.36h14.7v-14.7h-14.7V116.36z">
              </path>
              <path class="st2" d="M27.63,414.02H498v22.05H27.63V414.02z"></path>
            </svg>