<svg class="icon" xmlns="http://www.w3.org/2000/svg" xmlns:xlink="http://www.w3.org/1999/xlink"
              id="_x31__x2C_5" x="0px" y="0px" viewBox="0 0 512 512" style="enable-background:new 0 0 512 512;"
              xml:space="preserve">
              <g>
                <path class="st0"
                  d="M52.67,406.12C52.67,304.44,0,234.62,0,185.63S28.16,33.74,253.55,33.74S512,172.16,512,226.05   C512.01,478.39,52.67,586.18,52.67,406.12z">
                </path>
              </g>
              <g>
                <g>
                  <path class="st1" d="M386.86,97.32l10.39-10.39l20.78,20.78l-10.39,10.39L386.86,97.32z"></path>
                </g>
                <g>
                  <path class="st1" d="M446.62,157.09l10.39-10.39l20.78,20.78l-10.39,10.39L446.62,157.09z"></path>
                </g>
                <g>
                  <path class="st1" d="M444.02,107.72l20.78-20.78l10.4,10.39l-20.78,20.78L444.02,107.72z"></path>
                </g>
              </g>
              <g>
                <path class="st0"
                  d="M289.47,385.93H120.03c-16.17,0-29.4-13.23-29.4-29.4V128.7c0-16.17,13.23-29.4,29.4-29.4h169.04   c16.17,0,29.4,13.23,29.4,29.4l0.4,227.79C318.88,372.73,305.71,385.93,289.47,385.93z">
                </path>
              </g>
              <g>
                <circle class="st0" cx="204.55" cy="161.77" r="18.37"></circle>
              </g>
              <g>
                <path class="st0"
                  d="M252.33,264.67V246.3c0-16.24-13.16-29.4-29.4-29.4h-36.75c-16.24,0-29.4,13.16-29.4,29.4v18.37H252.33z">
                </path>
              </g>
              <g>
                <circle class="st0" cx="336.85" cy="345.51" r="84.52"></circle>
              </g>
              <g>
                <path class="st1"
                  d="M123.71,356.54V128.7c0-16.17,13.23-29.4,29.4-29.4h-33.07c-16.17,0-29.4,13.23-29.4,29.4v227.84   c0,16.17,13.23,29.4,29.4,29.4h33.07C136.94,385.93,123.71,372.7,123.71,356.54z">
                </path>
              </g>
              <g>
                <path class="st1"
                  d="M219.25,161.77c0-2.79,0.72-5.37,1.84-7.73c-2.94-6.25-9.19-10.64-16.54-10.64   c-10.14,0-18.37,8.23-18.37,18.37s8.23,18.37,18.37,18.37c7.35,0,13.6-4.4,16.54-10.64C219.97,167.14,219.25,164.56,219.25,161.77z   ">
                </path>
              </g>
              <g>
                <path class="st1"
                  d="M219.25,216.89h-33.07c-16.24,0-29.4,13.16-29.4,29.4v18.37h33.07v-18.37   C189.85,230.05,203.01,216.89,219.25,216.89z">
                </path>
              </g>
              <g>
                <path class="st1"
                  d="M285.4,345.51c0-41.01,29.22-75.19,67.98-82.87c-5.35-1.06-10.88-1.65-16.54-1.65   c-46.68,0-84.52,37.84-84.52,84.52s37.84,84.52,84.52,84.52c5.66,0,11.19-0.57,16.54-1.65C314.62,420.7,285.4,386.52,285.4,345.51z   ">
                </path>
              </g>
              <g>
                <path class="st2" d="M138.41,286.71h88.19v22.05h-88.19V286.71z"></path>
              </g>
              <g>
                <path class="st2" d="M138.41,330.81h73.5v22.05h-73.5V330.81z"></path>
              </g>
              <g>
                <path class="st2"
                  d="M204.55,191.17c-16.21,0-29.4-13.19-29.4-29.4s13.19-29.4,29.4-29.4s29.4,13.19,29.4,29.4   S220.77,191.17,204.55,191.17z M204.55,154.42c-4.06,0-7.35,3.29-7.35,7.35s3.29,7.35,7.35,7.35s7.35-3.29,7.35-7.35   S208.61,154.42,204.55,154.42z">
                </path>
              </g>
              <g>
                <path class="st2"
                  d="M263.35,264.67H241.3V246.3c0-10.13-8.25-18.37-18.37-18.37h-36.75c-10.13,0-18.37,8.25-18.37,18.37v18.37   h-22.05V246.3c0-22.3,18.12-40.42,40.42-40.42h36.75c22.3,0,40.42,18.12,40.42,40.42V264.67z">
                </path>
              </g>
              <g>
                <path class="st2"
                  d="M211.9,396.96h-91.87c-22.3,0-40.42-18.12-40.42-40.42V128.7c0-22.3,18.12-40.42,40.42-40.42h169.04   c22.3,0,40.42,18.12,40.42,40.42v92.75h-22.05V128.7c0-10.13-8.25-18.37-18.37-18.37H120.03c-10.13,0-18.37,8.25-18.37,18.37   v227.84c0,10.13,8.25,18.37,18.37,18.37h91.87V396.96z">
                </path>
              </g>
              <g>
                <path class="st2"
                  d="M336.85,441.06c-52.68,0-95.54-42.86-95.54-95.54s42.86-95.54,95.54-95.54s95.54,42.86,95.54,95.54   S389.53,441.06,336.85,441.06z M336.85,272.02c-40.53,0-73.5,32.97-73.5,73.5s32.97,73.5,73.5,73.5s73.5-32.97,73.5-73.5   S377.37,272.02,336.85,272.02z">
                </path>
              </g>
              <g>
                <path class="st2"
                  d="M322.15,382.26c-2.93,0-5.73-1.16-7.79-3.23l-29.4-29.4l15.6-15.6l21.06,21.06l43.69-49.92l16.6,14.51   l-51.45,58.8c-2.01,2.29-4.88,3.66-7.94,3.76C322.4,382.26,322.26,382.26,322.15,382.26z">
                </path>
              </g>
            </svg>